<?xml version="1.0" encoding="UTF-8"?>
<svg id="Layer_2" data-name="Layer 2" xmlns="http://www.w3.org/2000/svg" viewBox="0 0 456.02 350.92">
  <defs>
    <style>
      .cls-1 {
        fill: #4ade80;
        stroke: #231f20;
        stroke-miterlimit: 10;
      }
    </style>
  </defs>
  <g id="Layer_1-2" data-name="Layer 1">
    <g>
      <path class="cls-1" d="m245.44.55c-8.19,6.63-15.96,11.88-22.11,20.73-6.15,8.85-10.45,19.27-11.91,29.97-.46,3.33-.54,6.69-.5,10.05.02,1.58,1.1,6.08.31,7.54-1.8,3.36-10.47,1.68-14.58,1.68H.5v-5C3.89,44.63,11.85,26.46,29.46,13.64,48.55-.26,70,.54,92.53.55c50.97.01,101.94,0,152.91,0Z"/>
      <path class="cls-1" d="m210.56,347.3c.01,2.66-.83,3.11-3.25,3.11-45.57-.07-91.15-.06-136.72-.05-7.7,0-15.21-1.24-22.46-3.73-12.36-4.26-22.74-11.39-31.2-21.46-7.77-9.27-12.71-19.75-14.97-31.56-.58-3.05-.98-6.14-1.46-9.21v-4c68.98,0,137.97.01,206.96-.05,2.36-.01,3.09.55,3.08,3-.09,21.32-.11,42.64.02,63.95Z"/>
      <path class="cls-1" d="m175.48,210.44H.5v-69.96c57.36,0,114.72.01,172.08-.05,2.21,0,2.98.47,2.97,2.86-.1,22.38-.07,44.77-.07,67.15Z"/>
      <path class="cls-1" d="m455.5,217.01c-.11,22.63-.04,45.25-.04,67.88-.92,1.06-.32,2.34-.48,3.51.32,3.84-1.72,7.25-2.02,10.99-1.16,3-2.31,6-3.47,8.99,0,.17,0,.34-.02.51-.99,1.83-1.98,3.66-2.98,5.49,0,.17,0,.33-.02.5-2.41,3.56-4.67,7.22-7.49,10.5-.01.16-.02.32-.02.48-2.85,2.48-5.52,5.15-8.01,8-.41.02-.78.1-.98.51-3,2.16-6,4.33-9,6.5-.17,0-.33.01-.5.02-3.4,2.36-7.41,3.51-11.01,5.47-.63.14-1.3.2-1.89.43-3.11,1.21-6.26,2.25-9.6,2.57-2.38.02-4.71.32-7,.99-47.53.01-95.06-.01-142.59.07-2.53,0-2.96-.84-2.95-3.13.08-22.29.05-44.59.05-66.89,34.89,0,69.77,0,104.65-.02.96-.01,2.02.36,2.85-.48.5,0,1,0,1.49,0,1.15-.16,2.31-.25,3.43-.51,5.48-1.28,10.52-3.42,14.59-7.47,1.5-1.49,2.99-2.99,4.49-4.48,3.37-3.35,5.42-7.43,6.5-12.02.7-3.05,1.51-6.08,1.51-9.25,0-34.05,0-68.11,0-102.16,0-3.53,0-3.66,3.63-3.5,14.78.66,28.1,5.53,39.71,14.66,6.89,5.41,12.87,11.76,17.25,19.46.19.34.58.57.87.85,1.68,3.83,3.36,7.65,5.04,11.48,3.78,9.69,4.06,19.83,4.02,30.06Z"/>
      <path class="cls-1" d="m455.45,67.94c0,.87.33,1.85-.48,2.59-35.3,0-70.61,0-105.91,0-.87,0-1.85-.32-2.59.48-6.91.54-12.94,3.08-18.31,7.51-6.84,5.65-10.78,12.85-12.45,21.46-.21,1.08-.23,2.14-.23,3.22-.01,34.72-.03,69.43.06,104.15,0,2.59-.7,3.22-3.2,3.16-3.5-.07-6.92-.51-10.35-1.09-3.51-.99-7.01-1.98-10.51-2.97-.33-.17-.67-.33-1-.5-1.5-.66-3-1.33-4.5-1.99-1.31-.19-2.33-1.03-3.5-1.52-3.83-2.66-8-4.84-11.5-7.98-2.55-.47-9.02-6.96-9.52-9.51-1.66-2.16-3.32-4.33-4.98-6.49-1.16-2-2.33-4-3.49-6-2.27-5.34-4.5-10.7-5.74-16.41-1.04-4.78-1.76-9.6-1.76-14.5-.02-23.06.08-46.12-.04-69.17-.09-15.87,4.22-30.28,13.47-43.18,5.89-8.2,13.38-14.64,22.12-19.69,7.42-4.28,15.41-6.89,23.82-8.3,2.27-.39,4.61-.62,6.92-.63,46.88-.03,93.77-.01,140.66-.08,2.37,0,3.09.56,3.08,3.01-.1,21.47-.05,42.95-.07,64.43Z"/>
    </g>
  </g>
</svg>